<svg xmlns="http://www.w3.org/2000/svg" version="1.1" xmlns:xlink="http://www.w3.org/1999/xlink" xmlns:svgjs="http://svgjs.dev/svgjs" width="1000" height="1000" viewBox="0 0 1000 1000"><rect width="1000" height="1000" fill="#000000"></rect><g transform="matrix(0.7,0,0,0.7,150,106.25)"><svg viewBox="0 0 320 360" data-background-color="#5499ff" preserveAspectRatio="xMidYMid meet" height="1125" width="1000" xmlns="http://www.w3.org/2000/svg" xmlns:xlink="http://www.w3.org/1999/xlink"><g id="tight-bounds" transform="matrix(1,0,0,1,0,0)"><svg viewBox="0 0 320 360" height="360" width="320"><g><svg></svg></g><g><svg viewBox="0 0 320 360" height="360" width="320"><g><path xmlns="http://www.w3.org/2000/svg" d="M320 187.111c0-45.764-20.238-86.866-52.203-114.908-28.043-31.964-69.145-52.203-114.908-52.203-84.302 0-152.889 68.587-152.889 152.889 0 45.753 20.231 86.848 52.185 114.891 28.043 31.975 69.152 52.22 114.926 52.22 0.299 0 0.59-0.021 0.889-0.021 0.299 0 0.59 0.021 0.889 0.021 83.456 0 151.111-67.655 151.111-151.111 0-0.299-0.021-0.59-0.021-0.889 0-0.299 0.021-0.59 0.021-0.889zM59.833 263.097c-15.093-21.255-24.071-47.143-24.256-75.097 0.48-72.928 59.492-131.943 132.423-132.423 27.954 0.185 53.845 9.163 75.097 24.256 24.366 23.627 39.57 56.64 39.57 93.056 0 71.559-58.219 129.778-129.778 129.778-36.416 0-69.429-15.204-93.056-39.57zM3.556 172.889c0-82.343 66.99-149.333 149.333-149.333 35.051 0 67.292 12.167 92.8 32.462-22.98-13.824-49.863-21.796-78.578-21.796-84.302 0-152.889 68.587-152.889 152.889 0 28.708 7.968 55.584 21.785 78.56-20.288-25.5-32.452-57.739-32.451-92.782zM167.111 318.667c-35.84 0-68.363-14.418-92.107-37.743 21.952 15.89 48.864 25.298 77.885 25.298 73.522 0 133.333-59.812 133.333-133.333 0-29.02-9.408-55.932-25.298-77.885 23.324 23.744 37.742 56.267 37.743 92.107 0 72.54-59.015 131.556-131.556 131.556z" fill="#ffffff" fill-rule="nonzero" stroke="none" stroke-width="1" stroke-linecap="butt" stroke-linejoin="miter" stroke-miterlimit="10" stroke-dasharray="" stroke-dashoffset="0" font-family="none" font-weight="none" font-size="none" text-anchor="none" style="mix-blend-mode: normal" data-fill-palette-color="tertiary"></path></g><g transform="matrix(1,0,0,1,64,144.72857610756301)"><svg viewBox="0 0 192 70.54284778487396" height="70.54284778487396" width="192"><g><svg viewBox="0 0 192 70.54284778487396" height="70.54284778487396" width="192"><g><svg viewBox="0 0 192 70.54284778487396" height="70.54284778487396" width="192"><g transform="matrix(1,0,0,1,0,43.5983099697479)"><svg viewBox="0 0 192 26.94453781512605" height="26.94453781512605" width="192"><g id="textblocktransform"><svg viewBox="0 0 192 26.94453781512605" height="26.94453781512605" width="192" id="textblock"><g><svg viewBox="0 0 192 26.94453781512605" height="26.94453781512605" width="192"><g transform="matrix(1,0,0,1,0,0)"><svg width="192" viewBox="1.2200000286102295 -31.8799991607666 232.39999389648438 32.61000061035156" height="26.94453781512605" data-palette-color="#374151"><path d="M14.6 0L14.84-2.03 10.25-3.08 10.25-13.11 14.5-13.11 18.38-6.18Q20.14-3.03 22.25-1.26 24.37 0.51 27.08 0.51L27.08 0.51Q28.61 0.51 30 0.02L30 0.02 30.37-1.64 29.57-1.88Q28.1-2.32 27.05-3.09 26-3.86 25.07-4.98 24.15-6.1 22.41-8.52L22.41-8.52 18.02-14.6 18.02-14.62Q20.24-15.41 21.81-16.77 23.39-18.14 24.21-19.78 25.02-21.41 25.02-23.02L25.02-23.02Q25.02-27.08 21.81-28.83 18.6-30.59 12.77-30.59L12.77-30.59Q10.33-30.59 7.67-30.3 5-30 1.64-29.47L1.64-29.47 1.39-27.59 5.57-26.86 5.57-2.95 1.49-1.81 1.22 0 14.6 0ZM10.25-28.42Q10.47-28.44 11.29-28.49 12.11-28.54 13.18-28.54L13.18-28.54Q15.31-28.54 16.83-27.66 18.36-26.78 19.17-25.22 19.97-23.66 19.97-21.66L19.97-21.66Q19.97-19.24 18.55-17.63 17.14-16.02 15.09-15.33L15.09-15.33 10.25-15.33 10.25-28.42ZM40.09 0.73Q42.48 0.73 44.57-0.13 46.65-1 48.12-2.54L48.12-2.54 47.6-3.83Q46.41-3.2 45.51-2.91 44.6-2.61 43.92-2.55 43.23-2.49 42.06-2.49L42.06-2.49Q39.91-2.49 38.41-3.72 36.91-4.96 36.13-6.88 35.35-8.81 35.25-10.86L35.25-10.86 47.07-11.01Q47.21-11.65 47.34-12.63 47.46-13.62 47.46-14.18L47.46-14.18Q47.46-16.67 46.59-18.42 45.73-20.17 44.24-21.06 42.75-21.95 40.94-21.95L40.94-21.95Q38.5-21.95 36.18-20.56 33.86-19.17 32.38-16.55 30.91-13.94 30.91-10.45L30.91-10.45Q30.91-6.91 32.2-4.37 33.49-1.83 35.61-0.55 37.72 0.73 40.09 0.73L40.09 0.73ZM39.74-19.56Q43.11-19.56 43.11-15.01L43.11-15.01Q43.11-14.65 43.08-14.12 43.04-13.6 42.97-13.33L42.97-13.33 35.3-12.77Q35.42-15.01 36.09-16.54 36.77-18.07 37.74-18.81 38.72-19.56 39.74-19.56L39.74-19.56ZM61.42 0L61.76-1.93 58.12-2.78 58.12-16.48Q59.03-17.48 60.3-18.03 61.57-18.58 62.93-18.58L62.93-18.58Q64.86-18.58 66.02-17.47 67.18-16.36 67.18-14.09L67.18-14.09 67.18-2.78 63.81-1.78 63.57 0 74.53 0 74.78-1.93 71.26-2.78 71.26-15.04Q71.26-18.33 69.75-20.14 68.23-21.95 65.38-21.95L65.38-21.95Q63.23-21.95 61.32-20.85 59.42-19.75 58.03-18.09L58.03-18.09 57.78-18.09 58.2-21.22 57.78-21.68 50.51-20.73 50.26-18.87 54.02-17.6 54.02-2.78 50.34-1.78 50.09 0 61.42 0ZM78.85-18.63L78.75-6.35Q78.73-2.54 80.11-0.99 81.49 0.56 83.95 0.56L83.95 0.56Q86 0.56 87.71-0.39 89.42-1.34 90.57-3.03L90.57-3.03 90.06-4.35Q90.06-4.32 89.48-3.96 88.91-3.59 88.13-3.28 87.35-2.98 86.54-2.98L86.54-2.98Q85.25-2.98 84.47-3.42 83.68-3.86 83.32-4.91 82.95-5.96 82.95-7.79L82.95-7.79 83.02-18.58 89.76-18.58 89.98-20.73 83.07-20.73 83.07-26.54 81.78-26.54Q80.46-24.73 78.85-22.95 77.24-21.17 75.75-19.95L75.75-19.95 75.75-18.63 78.85-18.63ZM112.95 0L113.2-2.03 108.61-3.08 108.61-13.11 112.85-13.11 116.74-6.18Q118.49-3.03 120.61-1.26 122.72 0.51 125.43 0.51L125.43 0.51Q126.97 0.51 128.36 0.02L128.36 0.02 128.72-1.64 127.92-1.88Q126.45-2.32 125.4-3.09 124.35-3.86 123.43-4.98 122.5-6.1 120.76-8.52L120.76-8.52 116.37-14.6 116.37-14.62Q118.59-15.41 120.17-16.77 121.74-18.14 122.56-19.78 123.38-21.41 123.38-23.02L123.38-23.02Q123.38-27.08 120.17-28.83 116.96-30.59 111.12-30.59L111.12-30.59Q108.68-30.59 106.02-30.3 103.36-30 99.99-29.47L99.99-29.47 99.74-27.59 103.92-26.86 103.92-2.95 99.84-1.81 99.57 0 112.95 0ZM108.61-28.42Q108.83-28.44 109.64-28.49 110.46-28.54 111.54-28.54L111.54-28.54Q113.66-28.54 115.19-27.66 116.71-26.78 117.52-25.22 118.32-23.66 118.32-21.66L118.32-21.66Q118.32-19.24 116.91-17.63 115.49-16.02 113.44-15.33L113.44-15.33 108.61-15.33 108.61-28.42ZM138.44 0.73Q140.83 0.73 142.92-0.13 145-1 146.47-2.54L146.47-2.54 145.96-3.83Q144.76-3.2 143.86-2.91 142.95-2.61 142.27-2.55 141.59-2.49 140.41-2.49L140.41-2.49Q138.27-2.49 136.76-3.72 135.26-4.96 134.48-6.88 133.7-8.81 133.6-10.86L133.6-10.86 145.42-11.01Q145.57-11.65 145.69-12.63 145.81-13.62 145.81-14.18L145.81-14.18Q145.81-16.67 144.94-18.42 144.08-20.17 142.59-21.06 141.1-21.95 139.29-21.95L139.29-21.95Q136.85-21.95 134.53-20.56 132.21-19.17 130.73-16.55 129.26-13.94 129.26-10.45L129.26-10.45Q129.26-6.91 130.55-4.37 131.85-1.83 133.96-0.55 136.07 0.73 138.44 0.73L138.44 0.73ZM138.1-19.56Q141.46-19.56 141.46-15.01L141.46-15.01Q141.46-14.65 141.43-14.12 141.39-13.6 141.32-13.33L141.32-13.33 133.65-12.77Q133.77-15.01 134.45-16.54 135.12-18.07 136.09-18.81 137.07-19.56 138.1-19.56L138.1-19.56ZM147.39-19.48L150.37-18.46 157.16 0.68 160.26 0.24 166.93-18.51 169.56-19.51 169.86-21.31 160.5-21.31 160.16-19.48 164.09-18.46 159.41-4.74 154.82-18.51 158.36-19.51 158.55-21.31 147.64-21.31 147.39-19.48ZM176.32-26.12Q177.1-26.12 177.8-26.53 178.5-26.93 178.9-27.61 179.3-28.3 179.3-29.1L179.3-29.1Q179.3-30.27 178.42-31.08 177.54-31.88 176.32-31.88L176.32-31.88Q175.15-31.88 174.28-31.09 173.42-30.3 173.42-29.15L173.42-29.15Q173.42-28.34 173.81-27.65 174.2-26.95 174.87-26.54 175.54-26.12 176.32-26.12L176.32-26.12ZM170.51 0L182.23 0 182.5-1.95 178.59-2.83 178.59-21 177.98-21.61 171.12-21.04 170.81-19.19 174.49-17.85 174.49-2.83 170.81-1.93 170.51 0ZM193.24 0.73Q195.63 0.73 197.72-0.13 199.81-1 201.27-2.54L201.27-2.54 200.76-3.83Q199.56-3.2 198.66-2.91 197.76-2.61 197.07-2.55 196.39-2.49 195.22-2.49L195.22-2.49Q193.07-2.49 191.57-3.72 190.07-4.96 189.28-6.88 188.5-8.81 188.41-10.86L188.41-10.86 200.22-11.01Q200.37-11.65 200.49-12.63 200.61-13.62 200.61-14.18L200.61-14.18Q200.61-16.67 199.75-18.42 198.88-20.17 197.39-21.06 195.9-21.95 194.09-21.95L194.09-21.95Q191.65-21.95 189.33-20.56 187.01-19.17 185.54-16.55 184.06-13.94 184.06-10.45L184.06-10.45Q184.06-6.91 185.35-4.37 186.65-1.83 188.76-0.55 190.87 0.73 193.24 0.73L193.24 0.73ZM192.9-19.56Q196.27-19.56 196.27-15.01L196.27-15.01Q196.27-14.65 196.23-14.12 196.19-13.6 196.12-13.33L196.12-13.33 188.45-12.77Q188.58-15.01 189.25-16.54 189.92-18.07 190.9-18.81 191.87-19.56 192.9-19.56L192.9-19.56ZM202.29-19.51L205.1-18.51 210.91 0.68 213.82 0.24 217.89-14.31 222.36 0.68 225.27 0.24 230.69-18.55 233.32-19.56 233.62-21.36 224.27-21.36 224.02-19.51 227.68-18.51 224.12-5.71 223.61-8.42 220.02-20.24 216.63-19.8 212.69-5.86 212.11-8.79 209.15-18.55 212.45-19.56 212.67-21.36 202.54-21.36 202.29-19.51Z" opacity="1" transform="matrix(1,0,0,1,0,0)" fill="#ffffff" class="undefined-text-0" data-fill-palette-color="primary" id="text-0"></path></svg></g></svg></g></svg></g></svg></g><g transform="matrix(1,0,0,1,76.50126969960687,0)"><svg viewBox="0 0 38.997460600786255 37.237351260504205" height="37.237351260504205" width="38.997460600786255"><g><svg xmlns="http://www.w3.org/2000/svg" xmlns:xlink="http://www.w3.org/1999/xlink" version="1.1" x="0" y="0" viewBox="0.5 2.0999999046325684 70.9000015258789 67.70000457763672" enable-background="new 0 0 72 72" xml:space="preserve" height="37.237351260504205" width="38.997460600786255" class="icon-icon-0" data-fill-palette-color="accent" id="icon-0"><g fill="#374151" data-fill-palette-color="accent"><path fill="#ffffff" d="M31.3 33.9v35.5c0 0.2 0.2 0.4 0.4 0.4h3.1c0.2 0 0.4-0.2 0.4-0.4l0-12c0-3.9 2.9-7.5 6.8-7.8 4.5-0.4 8.3 3.1 8.3 7.5v12.3c0 0.2 0.2 0.4 0.4 0.4h20.3c0.2 0 0.4-0.2 0.4-0.4V33.9c0-0.2-0.2-0.4-0.4-0.4H31.7C31.5 33.5 31.3 33.7 31.3 33.9zM67.1 47.2H54.3c-0.2 0-0.4-0.2-0.4-0.4v-7.6c0-0.2 0.2-0.4 0.4-0.4h12.9c0.2 0 0.4 0.2 0.4 0.4v7.6C67.6 47 67.4 47.2 67.1 47.2z" data-fill-palette-color="accent"></path><path fill="#ffffff" d="M0.5 2.5v51.9c0 0.2 0.2 0.3 0.3 0.3h2.8c0.2 0 0.3-0.2 0.3-0.3V48c0-0.2 0.2-0.3 0.3-0.3h6.6c0.2 0 0.3-0.2 0.3-0.3V41c0-0.2 0.2-0.3 0.3-0.3h6.6c0.2 0 0.3-0.2 0.3-0.3V34c0-0.2 0.2-0.3 0.3-0.3h8.4c0.2 0 0.3-0.2 0.3-0.3V10.2c0-0.2-0.1-0.3-0.2-0.3L0.9 2.1C0.7 2.1 0.5 2.2 0.5 2.5zM22.2 24.6H5.9c-0.2 0-0.3-0.2-0.3-0.3v-6.5c0-0.2 0.2-0.3 0.3-0.3h16.3c0.2 0 0.3 0.2 0.3 0.3v6.5C22.5 24.5 22.4 24.6 22.2 24.6z" data-fill-palette-color="accent"></path><path fill="#ffffff" d="M23.1 38.5v6.3c0 0.2-0.2 0.3-0.3 0.3h-6.6c-0.2 0-0.3 0.2-0.3 0.3v6.3c0 0.2-0.2 0.3-0.3 0.3H8.8c-0.2 0-0.3 0.2-0.3 0.3v6.4c0 0.2-0.2 0.3-0.3 0.3H0.8c-0.2 0-0.3 0.2-0.3 0.3v10c0 0.2 0.2 0.3 0.3 0.3h26.4c0.2 0 0.3-0.2 0.3-0.3v-31c0-0.2-0.2-0.3-0.3-0.3h-3.8C23.2 38.2 23.1 38.4 23.1 38.5z" data-fill-palette-color="accent"></path></g></svg></g></svg></g><g></g></svg></g></svg></g></svg></g></svg></g><defs></defs></svg><rect width="320" height="360" fill="none" stroke="none" visibility="hidden"></rect></g></svg></g></svg>